<svg width="779" height="451" viewBox="0 0 779 451" fill="none" xmlns="http://www.w3.org/2000/svg">
<rect width="779" height="451" rx="30" fill="#79948B"/>
<g clip-path="url(#clip0_120_71)">
<path d="M394.651 239.436C391.975 238.267 391.437 232.739 392.207 230.257C393.217 228.016 394.798 226.156 396.753 224.909C398.708 223.662 400.95 223.084 403.199 223.247C416.635 223.295 423.698 241.265 422.873 254.034C421.04 282.298 388.229 293.87 369.325 277.613C346.986 258.406 348.887 222.452 367.357 201.177C389.659 175.497 425.812 175.748 452.507 192.617C479.538 209.69 497.306 244.467 487.866 279.102C478.865 312.106 445.786 331.429 416.873 335.393C401.262 337.682 385.388 336.004 370.443 330.485C355.498 324.967 341.872 315.752 330.587 303.532C320.236 292.194 312.101 278.6 306.691 263.601C301.28 248.602 298.711 232.521 299.145 216.366C299.913 197.643 304.686 179.393 313.067 163.135C321.449 146.877 333.197 133.08 347.335 122.891C378.765 100.753 417.38 97.4625 453.552 101.345C456.994 101.32 460.288 99.7878 462.723 97.0799C465.157 94.3721 466.536 90.7065 466.56 86.8762C466.494 83.0574 465.104 79.4149 462.679 76.7115C460.254 74.0082 456.983 72.4537 453.552 72.3736C411.631 67.8997 365.873 73.5906 330.33 100.74C313.26 113.904 299.194 131.33 289.256 151.625C279.319 171.919 273.785 194.519 273.098 217.618C271.692 297.623 328.84 363.745 400.736 365.302C415.605 365.624 430.414 363.111 444.521 357.871C485.825 342.498 520.695 302.444 515.972 251.09C511.463 202.163 475.395 162.639 432.344 153.916C389.647 145.274 344.151 167.508 330.043 215.428C317.628 257.576 341.988 308.237 382.84 313.615C391.935 314.75 401.143 313.642 409.81 310.369C418.477 307.096 426.389 301.74 432.985 294.679C440.722 285.89 445.925 274.731 447.928 262.632C449.93 250.532 448.642 238.042 444.228 226.762C440.517 216.23 433.736 207.388 424.971 201.655C416.207 195.922 405.966 193.63 395.891 195.146C390.991 195.957 386.303 197.92 382.138 200.905C377.974 203.89 374.429 207.829 371.74 212.459C369.051 217.088 367.279 222.303 366.544 227.754C365.808 233.205 366.125 238.769 367.473 244.073C368.995 249.434 371.617 254.327 375.133 258.365C378.648 262.402 382.961 265.473 387.728 267.333C391.055 268.323 394.598 267.817 397.592 265.924C400.587 264.031 402.791 260.903 403.73 257.216C404.565 253.518 404.087 249.604 402.395 246.289C400.702 242.973 397.927 240.512 394.645 239.416L394.651 239.436Z" fill="url(#paint0_linear_120_71)"/>
</g>
<defs>
<linearGradient id="paint0_linear_120_71" x1="414.172" y1="365.432" x2="358.328" y2="80.8235" gradientUnits="userSpaceOnUse">
<stop stop-color="#E4C69D"/>
<stop offset="0.311" stop-color="#E4C69D"/>
<stop offset="0.5" stop-color="#E4C69D"/>
<stop offset="0.594" stop-color="#E4C69D"/>
<stop offset="0.797" stop-color="#E4C69D"/>
<stop offset="1" stop-color="#E4C69D"/>
</linearGradient>
<clipPath id="clip0_120_71">
<rect width="243.479" height="294.336" fill="white" transform="translate(273 71)"/>
</clipPath>
</defs>
</svg>
