<svg width="687" height="344" viewBox="0 0 687 344" fill="none" xmlns="http://www.w3.org/2000/svg">
<rect width="687" height="344" rx="10" fill="#79948B"/>
<g clip-path="url(#clip0_112_16)">
<path d="M369.422 189.318C367.059 188.302 366.584 183.501 367.264 181.345C368.156 179.398 369.552 177.782 371.278 176.699C373.005 175.616 374.984 175.114 376.97 175.255C388.834 175.297 395.071 190.907 394.343 201.999C392.724 226.552 363.751 236.605 347.058 222.483C327.333 205.797 329.01 174.564 345.321 156.083C365.014 133.775 396.938 133.994 420.511 148.647C444.38 163.478 460.069 193.689 451.733 223.776C443.786 252.445 414.576 269.231 389.045 272.675C375.26 274.663 361.242 273.205 348.046 268.412C334.849 263.618 322.816 255.613 312.851 244.998C303.711 235.148 296.528 223.339 291.75 210.31C286.973 197.281 284.704 183.312 285.087 169.278C285.765 153.013 289.98 137.16 297.381 123.037C304.782 108.914 315.156 96.9284 327.64 88.0776C355.394 68.8465 389.493 65.9878 421.433 69.3603C424.473 69.3387 427.382 68.0077 429.532 65.6555C431.681 63.3032 432.899 60.1189 432.92 56.7916C432.862 53.4742 431.634 50.31 429.493 47.9617C427.352 45.6133 424.463 44.2629 421.433 44.1934C384.415 40.307 344.01 45.2506 312.625 68.8347C297.551 80.2707 285.13 95.4083 276.355 113.038C267.58 130.667 262.693 150.299 262.086 170.365C260.845 239.865 311.308 297.304 374.796 298.657C387.925 298.936 401.002 296.753 413.459 292.201C449.931 278.847 480.723 244.053 476.552 199.442C472.57 156.94 440.722 122.606 402.706 115.028C365.003 107.521 324.829 126.835 312.371 168.463C301.408 205.077 322.919 249.085 358.993 253.757C367.024 254.743 375.155 253.78 382.808 250.937C390.461 248.094 397.448 243.441 403.272 237.307C410.104 229.672 414.698 219.979 416.467 209.468C418.235 198.957 417.098 188.108 413.2 178.309C409.923 169.159 403.935 161.479 396.196 156.499C388.456 151.519 379.414 149.527 370.517 150.844C366.19 151.548 362.05 153.254 358.373 155.847C354.695 158.44 351.565 161.862 349.19 165.883C346.816 169.905 345.252 174.435 344.602 179.17C343.953 183.906 344.232 188.739 345.423 193.347C346.766 198.004 349.082 202.254 352.187 205.761C355.291 209.269 359.099 211.936 363.309 213.552C366.247 214.412 369.375 213.972 372.019 212.328C374.663 210.683 376.61 207.966 377.439 204.763C378.177 201.551 377.754 198.151 376.26 195.271C374.765 192.391 372.314 190.253 369.416 189.301L369.422 189.318Z" fill="url(#paint0_linear_112_16)"/>
</g>
<defs>
<linearGradient id="paint0_linear_112_16" x1="386.66" y1="298.769" x2="338.88" y2="51.2379" gradientUnits="userSpaceOnUse">
<stop stop-color="#E4C69D"/>
<stop offset="0.311" stop-color="#E4C69D"/>
<stop offset="0.5" stop-color="#E4C69D"/>
<stop offset="0.594" stop-color="#E4C69D"/>
<stop offset="0.797" stop-color="#E4C69D"/>
<stop offset="1" stop-color="#E4C69D"/>
</linearGradient>
<clipPath id="clip0_112_16">
<rect width="215" height="255.686" fill="white" transform="translate(262 43)"/>
</clipPath>
</defs>
</svg>
